<svg xmlns="http://www.w3.org/2000/svg" viewBox="0 0 120 120" width="120" height="120">
  <!-- Background circle -->
  <circle cx="60" cy="60" r="60" fill="#ec4899"/>
  <!-- Shoulders -->
  <ellipse cx="60" cy="115" rx="40" ry="28" fill="#fce7f3" opacity="0.95"/>
  <!-- Neck -->
  <rect x="51" y="68" width="18" height="13" rx="4" fill="#fce7f3" opacity="0.95"/>
  <!-- Head -->
  <circle cx="60" cy="50" r="21" fill="#fce7f3" opacity="0.95"/>
  <!-- Shoulder-length hair -->
  <path d="M39 48 C39 29, 81 29, 81 48 L81 42 C81 25, 39 25, 39 42 Z" fill="#fbcfe8" opacity="0.9"/>
  <!-- Hair sides flowing down (shoulder length) -->
  <path d="M39 42 C37 42, 34 55, 34 68 C34 72, 38 72, 39 68 L39 42Z" fill="#fbcfe8" opacity="0.9"/>
  <path d="M81 42 C83 42, 86 55, 86 68 C86 72, 82 72, 81 68 L81 42Z" fill="#fbcfe8" opacity="0.9"/>
  <!-- Hair top -->
  <ellipse cx="60" cy="31" rx="21" ry="7" fill="#fbcfe8" opacity="0.9"/>
</svg>
