<svg xmlns="http://www.w3.org/2000/svg" viewBox="0 0 120 120" width="120" height="120">
  <!-- Background circle -->
  <circle cx="60" cy="60" r="60" fill="#f59e0b"/>
  <!-- Shoulders -->
  <ellipse cx="60" cy="115" rx="38" ry="27" fill="#fef3c7" opacity="0.95"/>
  <!-- Neck -->
  <rect x="51" y="68" width="18" height="13" rx="4" fill="#fef3c7" opacity="0.95"/>
  <!-- Head -->
  <circle cx="60" cy="50" r="21" fill="#fef3c7" opacity="0.95"/>
  <!-- Hair base -->
  <path d="M39 48 C39 29, 81 29, 81 48 L81 42 C81 25, 39 25, 39 42 Z" fill="#fde68a" opacity="0.9"/>
  <!-- Hair top -->
  <ellipse cx="60" cy="31" rx="21" ry="7" fill="#fde68a" opacity="0.9"/>
  <!-- Ponytail going to the right-back -->
  <path d="M78 38 C85 36, 92 42, 90 52 C89 58, 84 62, 80 58 C84 52, 84 42, 78 38Z" fill="#fde68a" opacity="0.9"/>
  <!-- Ponytail tie -->
  <ellipse cx="80" cy="40" rx="3" ry="4" fill="#fbbf24" opacity="0.7"/>
</svg>
