<svg xmlns="http://www.w3.org/2000/svg" viewBox="0 0 120 120" width="120" height="120">
  <!-- Background circle -->
  <circle cx="60" cy="60" r="60" fill="#ef4444"/>
  <!-- Shoulders -->
  <ellipse cx="60" cy="115" rx="38" ry="27" fill="#fee2e2" opacity="0.95"/>
  <!-- Neck -->
  <rect x="51" y="68" width="18" height="13" rx="4" fill="#fee2e2" opacity="0.95"/>
  <!-- Head -->
  <circle cx="60" cy="50" r="21" fill="#fee2e2" opacity="0.95"/>
  <!-- Short bob hair -->
  <path d="M39 48 C39 29, 81 29, 81 48 L81 42 C81 25, 39 25, 39 42 Z" fill="#fecaca" opacity="0.9"/>
  <!-- Hair top -->
  <ellipse cx="60" cy="31" rx="21" ry="7" fill="#fecaca" opacity="0.9"/>
  <!-- Bob sides (shorter than shoulder length) -->
  <path d="M39 42 C37 42, 35 50, 36 58 C36 62, 40 62, 40 58 L39 42Z" fill="#fecaca" opacity="0.9"/>
  <path d="M81 42 C83 42, 85 50, 84 58 C84 62, 80 62, 80 58 L81 42Z" fill="#fecaca" opacity="0.9"/>
</svg>
