<svg xmlns="http://www.w3.org/2000/svg" viewBox="0 0 800 600" fill="none">
  <defs>
    <radialGradient id="bg" cx="0.6" cy="0.45" r="0.55">
      <stop offset="0%" stop-color="#3b82f6" stop-opacity="0.08"/>
      <stop offset="100%" stop-color="#3b82f6" stop-opacity="0"/>
    </radialGradient>
  </defs>
  <rect width="800" height="600" fill="url(#bg)"/>
  <!-- Wood grain lines -->
  <g stroke="#3b82f6" stroke-opacity="0.08" stroke-width="1.2" fill="none">
    <path d="M320 60 Q420 70 520 60 Q620 50 720 65"/>
    <path d="M320 100 Q420 110 520 100 Q620 90 720 105"/>
    <path d="M320 140 Q420 150 520 140 Q620 130 720 145"/>
    <path d="M320 180 Q420 190 520 180 Q620 170 720 185"/>
    <path d="M320 220 Q420 230 520 220 Q620 210 720 225"/>
    <path d="M320 260 Q420 270 520 260 Q620 250 720 265"/>
    <path d="M320 300 Q420 310 520 300 Q620 290 720 305"/>
    <path d="M320 340 Q420 350 520 340 Q620 330 720 345"/>
    <path d="M320 380 Q420 390 520 380 Q620 370 720 385"/>
    <path d="M320 420 Q420 430 520 420 Q620 410 720 425"/>
    <path d="M320 460 Q420 470 520 460 Q620 450 720 465"/>
    <path d="M320 500 Q420 510 520 500 Q620 490 720 505"/>
    <path d="M320 540 Q420 550 520 540 Q620 530 720 545"/>
  </g>
  <!-- Termite tunnel damage paths -->
  <g stroke="#3b82f6" stroke-opacity="0.15" stroke-width="3" fill="none" stroke-linecap="round" stroke-linejoin="round">
    <path d="M460 80 Q470 130 490 160 Q510 190 500 240 Q490 280 510 320 Q530 360 520 410 Q510 450 530 500 Q540 530 530 560"/>
    <path d="M600 100 Q590 150 610 190 Q630 230 620 280 Q610 320 630 360 Q650 400 640 450 Q630 490 650 530"/>
    <path d="M500 240 L580 250"/>
    <path d="M510 320 L600 310"/>
    <path d="M520 410 L620 400"/>
  </g>
  <!-- Main termite -->
  <g transform="translate(500, 280)" stroke="#3b82f6" stroke-opacity="0.3" stroke-width="2" fill="none" stroke-linecap="round" stroke-linejoin="round">
    <!-- Abdomen -->
    <ellipse cx="35" cy="0" rx="22" ry="14" stroke-opacity="0.25"/>
    <!-- Thorax -->
    <ellipse cx="10" cy="-2" rx="16" ry="11" stroke-opacity="0.25"/>
    <!-- Head -->
    <ellipse cx="-12" cy="-1" rx="12" ry="9" stroke-opacity="0.3"/>
    <!-- Mandibles -->
    <path d="M-24 -4 Q-34 -10 -38 -6"/>
    <path d="M-24 2 Q-34 8 -38 4"/>
    <!-- Antennae -->
    <path d="M-20 -8 Q-30 -22 -42 -26"/>
    <path d="M-18 -9 Q-26 -24 -36 -30"/>
    <!-- Legs -->
    <path d="M0 10 Q-4 22 -8 28"/>
    <path d="M8 11 Q6 24 4 30"/>
    <path d="M18 10 Q16 24 14 30"/>
    <path d="M0 -12 Q-4 -22 -8 -26"/>
    <path d="M8 -13 Q6 -24 4 -28"/>
    <path d="M18 -13 Q16 -24 14 -28"/>
  </g>
  <!-- Second termite (smaller) -->
  <g transform="translate(580, 380) scale(0.75)" stroke="#3b82f6" stroke-opacity="0.2" stroke-width="2" fill="none" stroke-linecap="round" stroke-linejoin="round">
    <ellipse cx="35" cy="0" rx="22" ry="14"/>
    <ellipse cx="10" cy="-2" rx="16" ry="11"/>
    <ellipse cx="-12" cy="-1" rx="12" ry="9"/>
    <path d="M-24 -4 Q-34 -10 -38 -6"/>
    <path d="M-24 2 Q-34 8 -38 4"/>
    <path d="M-20 -8 Q-30 -22 -42 -26"/>
    <path d="M-18 -9 Q-26 -24 -36 -30"/>
    <path d="M0 10 Q-4 22 -8 28"/>
    <path d="M8 11 Q6 24 4 30"/>
    <path d="M18 10 Q16 24 14 30"/>
    <path d="M0 -12 Q-4 -22 -8 -26"/>
    <path d="M8 -13 Q6 -24 4 -28"/>
    <path d="M18 -13 Q16 -24 14 -28"/>
  </g>
  <!-- Third termite (smallest) -->
  <g transform="translate(640, 200) scale(0.55)" stroke="#3b82f6" stroke-opacity="0.15" stroke-width="2" fill="none" stroke-linecap="round" stroke-linejoin="round">
    <ellipse cx="35" cy="0" rx="22" ry="14"/>
    <ellipse cx="10" cy="-2" rx="16" ry="11"/>
    <ellipse cx="-12" cy="-1" rx="12" ry="9"/>
    <path d="M-24 -4 Q-34 -10 -38 -6"/>
    <path d="M-24 2 Q-34 8 -38 4"/>
    <path d="M-20 -8 Q-30 -22 -42 -26"/>
    <path d="M0 10 Q-4 22 -8 28"/>
    <path d="M8 11 Q6 24 4 30"/>
    <path d="M18 10 Q16 24 14 30"/>
  </g>
</svg>